<svg xmlns="http://www.w3.org/2000/svg" viewBox="0 0 162.7876 251.5791"><title>wftda-logo</title><path d="M134.245 251.58H28.54A28.575 28.575 0 0 1 0 223.034V28.54A28.572 28.572 0 0 1 28.54 0h105.705a28.573 28.573 0 0 1 28.543 28.54v194.495a28.575 28.575 0 0 1-28.543 28.544z" fill="#fff"/><path d="M120.973 2.11H28.54A26.457 26.457 0 0 0 2.114 28.539v194.497a26.457 26.457 0 0 0 26.426 26.428h105.704a26.458 26.458 0 0 0 26.43-26.428V28.538a26.458 26.458 0 0 0-26.43-26.427h-13.271zM4.228 223.036V28.538A24.34 24.34 0 0 1 28.54 4.225h105.704a24.342 24.342 0 0 1 24.316 24.313v194.497a24.344 24.344 0 0 1-24.316 24.315H28.54a24.342 24.342 0 0 1-24.312-24.315z" fill="#0c0c0c"/><path d="M88.5 125.03c1.605.693 4.123 3.011 8.252 6.812 4.128 3.798 4.89 3.755 5.349 4.099a7.596 7.596 0 0 1 2.45-2.373s1.145-3.8 1.83-6.682l-.343-.233 1.262-2.877a5.309 5.309 0 0 1 1.605-1.382 50.813 50.813 0 0 0 1.488-12.441l-.459-.691a56.89 56.89 0 0 0 1.677-6.76c.113-1.611-.921-3.566-2.032-8.113 0 0-4.222 5.76-10.562 2.628a5.502 5.502 0 0 0-1.463-.543 24.666 24.666 0 0 1-2.75 3.227c-.802.574-.69.23-.69.23a35.382 35.382 0 0 1-6.072 5.178c-.921.581-2.065 2.425-2.868 3-.805.577-.117.347-.117.347s0 6.677-.341 7.716c-.347 1.038-.805.804-.805.804l-.341.348a13.741 13.741 0 0 1-.574 4.02 44.74 44.74 0 0 0 5.504 3.686z"/><path d="M7.569 28.539v194.51a20.986 20.986 0 0 0 18.434 20.8 5.49 5.49 0 0 1-.56-2.944 5.942 5.942 0 0 1 5.52-6.014l-.229-1.152 1.149-.236.46-.927-.69-.456-2.757-.694v-.925a6.212 6.212 0 0 1-.46-2.311l-.46-4.624c-.459-4.625 2.988-6.009 3.217-6.702.231-.693 1.382-2.776 1.84-3.93a7.048 7.048 0 0 1 2.071-2.316l.46-1.149s2.988-11.325 3.446-14.097a120.483 120.483 0 0 1 2.532-14.325c1.613-6.012 6.44-11.558 6.44-11.558a2.56 2.56 0 0 1 1.15-2.772 7.286 7.286 0 0 0 2.068-2.549l.463-1.153 2.072-.921-.693-.923.23-1.156-.23-.926h-1.38l-.229-1.616-.692-.928.459-.92c-5.978-12.482-7.128-21.494-7.128-21.494-1.609 0-5.062-.923-5.287-3.464a66.855 66.855 0 0 1 .459-8.784s-1.842-3.931 1.146-14.328c2.995-10.4 16.329-17.101 16.329-17.101h.692c3.448-4.622 6.44-6.24 6.44-6.24l-.689-.693a39.95 39.95 0 0 0 4.366-6.703c2.53-4.62 5.75-16.175 7.133-19.644a22.783 22.783 0 0 1 2.997-5.134 10.038 10.038 0 0 1-2.707 1.847c-6.617 2.665-13.264-5.905-12.196-6.977 1.07-1.073 2.177.562 5.876.268 2.288-.182 2.83-.967 4.163-2.954 1.8-2.68 1.959-5.841 6.965-8.586 4.305-2.359 11.061 1.707 12.878 2.9-.375-.67-1.182-1.462-1.036-1.664-.032-.54-.046-1.97-.007-5.2.1-8.268 6.638-13.74 9.918-15.492 3.47-1.851 9.306-2.831 11.672-2.908a18.86 18.86 0 0 1 2.954.179l2.404-5.876H28.533A20.986 20.986 0 0 0 7.57 28.54z" fill="#f5a2c6"/><path d="M128.575 20.99c4.542 7.292 3.346 10.247 3.022 11.384-.318 1.133-3.099.993-3.099.993a6.327 6.327 0 0 1-1.056 2.57 15.336 15.336 0 0 0 .407 2.441 11.417 11.417 0 0 0 1.04 2.446 2.65 2.65 0 0 1 .596 2.204c-.312 1.027-2.92.855-2.92.855l-.605 1.483-.199.995a2.126 2.126 0 0 1 .005 1.094 3.883 3.883 0 0 1-.678 1.018c.017.388.343.31.152.807a3.533 3.533 0 0 1-1.06 1.092l-.435 1.851a3.21 3.21 0 0 1-1.764 1.43c-1.207.35-2.462-.079-4.116-.055a19.826 19.826 0 0 1-4.004-.772c-.236.205-.477.39-.706.552l.634.246-.002.11 1.717 1.459 1.981 1.195c4.357 2.524 6.603 7.3 6.998 12.34a41.556 41.556 0 0 1-1.186 11.283c.264 5.707 0 10.217 0 10.217l.97.419s-1.366-.021.482 5.687c1.85 5.704 1.19 7.562 1.056 8.888-.13 1.328-1.677 5.63-1.94 6.955a3.231 3.231 0 0 1-.833 1.806l-1.122.663c-2.51 6.634-3.764 9.685-3.764 9.685l.395.796a14.567 14.567 0 0 1 .134 3.184 2.585 2.585 0 0 0-.794 1.062c-.13.533-1.717 5.577-1.717 5.577l-.66 4.515a20.768 20.768 0 0 1 2.116 1.457 13.006 13.006 0 0 1 1.055 2.79v2.648c1.851 1.33 4.49 5.044 4.49 5.044l.66.397a6.328 6.328 0 0 1 1.455 2.788 15.397 15.397 0 0 1-1.85 8.492c-6.34 12.744-6.474 9.95-6.474 9.95a4.604 4.604 0 0 1-4.09 2.397c-1.323 1.989-2.383 1.324-2.383 1.324-1.056 2.788-4.355 11.012-6.858 15.129a18.342 18.342 0 0 0-2.25 9.287l.53-.127c.656 1.187.526 5.04.526 5.04 1.584-.397 5.15 3.187 7.922 5.173 2.777 1.987 6.738 3.058 10.17 4.645a4.075 4.075 0 0 1 2.378 4.915 1.343 1.343 0 0 1 .263 1.06l-2.375.127v.669h.394v.662l-.926-.268v2.121l.792 1.334a17.35 17.35 0 0 1 3.039.133l1.192 3.447c-2.248 2.124-6.739 1.59-6.739 1.59a3.69 3.69 0 0 1-4.488 2.654 5.476 5.476 0 0 1-3.7 2.657s.13.398-2.376.133c-2.508-.263-3.564-3.048-4.092-5.04-.529-1.994 1.847-4.91 1.847-4.91l.13-1.2-9.263.26c.275.17.57.858.418 3.191-.265 3.982-4.755 4.514-4.755 4.514a4.441 4.441 0 0 1-4.62 2.125l-2.513-.135s-3.565-.4-3.96-3.715c-.488-4.091 2.113-4.909 2.113-4.909l3.038-1.994c0-1.19 1.717-2.519 1.717-2.519h-3.434v-1.033c-.072-.07-.153-.166-.264-.294a2.724 2.724 0 0 1-.398-2.522 21.564 21.564 0 0 1-.79-5.044 7.425 7.425 0 0 1 1.052-2.917 1.981 1.981 0 0 0 1.587-2.122 6.203 6.203 0 0 1 1.057-3.185l.66-1.86.793-.263s1.85-4.776 2.113-15.128c.406-15.946 5.809-22.168 5.809-22.168l.135-1.061c-.661-.665-1.19-1.189-.661-1.987.526-.794 2.903-2.656 3.96-4.246 1.06-1.595-1.453-2.26-1.453-2.26l-.925-.661a4.847 4.847 0 0 0-1.848-.266c-.66.134-1.321-1.195-1.321-1.195a76.021 76.021 0 0 1-10.037-1.458l-.395.26v1.73a1.819 1.819 0 0 1-.526 1.727 31.804 31.804 0 0 0-2.776 3.318 2.387 2.387 0 0 1-2.037.538c1.843 9.245-1.61 11.333-3.218 13.175-1.609 1.85-5.75 5.547-7.82 7.854-2.071 2.318-5.978.465-5.978.465-2.07 4.623-6.208 10.632-9.201 16.183a45.934 45.934 0 0 0-4.139 12.014l.92 1.383 1.377.7s.696 1.847-.225 2.31a.987.987 0 0 0-.692 1.149 1.975 1.975 0 0 1 1.838 1.156c3.223.234 7.133 3.47 14.029 5.779 6.903 2.309 5.29 5.778 5.29 5.778l.229 1.384-3.215.927.69.234v2.769l.687 1.388a2.451 2.451 0 0 1 2.529.231l.693 2.544a8.058 8.058 0 0 1-5.062 3.7l-1.841-1.853a4.514 4.514 0 0 1-3.243 4.043h72.259a20.99 20.99 0 0 0 20.968-20.968V28.54a20.988 20.988 0 0 0-20.968-20.962h-15.703l-2.404 5.876c3.602.484 9.088 2.161 12.437 7.537zM49.6 242.05a4.825 4.825 0 0 1 .205-2.35 6.065 6.065 0 0 1 1.401-2.51 1.59 1.59 0 0 1 .465-1.838c-4.369-2.543-10.115-.697-10.115-.697a5.665 5.665 0 0 1-4.87 8.786 5.046 5.046 0 0 1-.27.576h13.801a5.863 5.863 0 0 1-.594-1.882c-.006-.029-.017-.055-.023-.084z"/><path fill="#231f20" d="M40.15 81.937h-3.514l-4.375-9.757-4.404 9.757h-3.41L19.78 65.613h3.672l3.092 12.438 5.687-12.438h.394l5.506 12.438 3.358-12.438h3.409L40.15 81.937zM50.952 74.792h6.528v-2.336h-6.528v-4.554h7.552v-2.311H47.492v16.346h3.46v-7.145zM70.972 81.937h-3.435V67.926h-5.664v-2.335h14.733v2.335h-5.634v14.011zM79.205 65.613h6.239a12.871 12.871 0 0 1 5.348.971 7.605 7.605 0 0 1 4.616 7.098 7.783 7.783 0 0 1-4.723 7.284 12.04 12.04 0 0 1-5.319.97h-6.16V65.614zm3.408 14.058h2.36a7.247 7.247 0 0 0 4.798-1.388 6.03 6.03 0 0 0 .132-8.833 7.834 7.834 0 0 0-5.323-1.503h-1.967v11.724zM113.69 81.937h-3.75l-1.705-4.069h-7.362l-1.762 4.069h-3.462l7.473-16.324h3.356zm-6.267-6.082l-2.494-6.103c-.1-.276-.129-.37-.286-.878-.182.531-.21.625-.285.832l-2.65 6.15h5.715zM111.922 65.31a1.453 1.453 0 0 1 1.455 1.443 1.41 1.41 0 0 1-.419 1.03 1.393 1.393 0 0 1-1.019.435 1.454 1.454 0 1 1-.017-2.909m-.002.15a1.213 1.213 0 0 0-.898.388 1.257 1.257 0 0 0-.369.924 1.272 1.272 0 0 0 .378.919 1.253 1.253 0 0 0 1.8-.01 1.33 1.33 0 0 0-.01-1.846 1.213 1.213 0 0 0-.901-.374zm-.638 2.105l-.009-1.625.801-.007a.43.43 0 0 1 .498.475.39.39 0 0 1-.217.424.295.295 0 0 1 .2.314v.41l-.209.002-.002-.37a.22.22 0 0 0-.241-.258h-.06l-.553.003.004.63zm.207-.826l.526-.003a.282.282 0 0 0 .346-.283.453.453 0 0 0-.054-.267.307.307 0 0 0-.23-.058l-.594.004z"/></svg>